<svg width="17" height="16" viewBox="0 0 17 16" fill="none" xmlns="http://www.w3.org/2000/svg">
<path d="M14 7V4" stroke="black" stroke-linecap="round" stroke-linejoin="round"/>
<path d="M15.5 5.5H12.5" stroke="black" stroke-linecap="round" stroke-linejoin="round"/>
<path d="M11 1.5V3.5" stroke="black" stroke-linecap="round" stroke-linejoin="round"/>
<path d="M12 2.5H10" stroke="black" stroke-linecap="round" stroke-linejoin="round"/>
<path d="M14.0438 9.53752C13.0622 9.8128 12.0249 9.82182 11.0386 9.56366C10.0523 9.3055 9.15248 8.78946 8.43156 8.06854C7.71064 7.34762 7.1946 6.4478 6.93644 5.46149C6.67828 4.47519 6.6873 3.43794 6.96258 2.45627C5.99474 2.72565 5.11437 3.24391 4.40917 3.95941C3.70396 4.67492 3.19852 5.56271 2.94319 6.53435C2.68787 7.50599 2.69157 8.52756 2.95393 9.49732C3.21629 10.4671 3.72815 11.3512 4.43853 12.0616C5.14891 12.7719 6.03301 13.2838 7.00277 13.5462C7.97253 13.8085 8.99411 13.8122 9.96575 13.5569C10.9374 13.3016 11.8252 12.7961 12.5407 12.0909C13.2562 11.3857 13.7744 10.5054 14.0438 9.53752Z" stroke="black" stroke-linecap="round" stroke-linejoin="round"/>
</svg>
